@startuml

' --------v-v-v-v-v-v-v-v--------
' https://www.rijkshuisstijl.nl/organisatiespecifieke-richtlijnen/ministerie-van-binnenlandse-zaken-en-koninkrijksrelaties/deelidentiteit-kerndepartement-bzk
' https://www.rijkshuisstijl.nl/basiselementen/basiselementen-online/online-kleuren
'
' # Communicatiekleuren
' Het kerndepartement van BZK heeft uit het kleurenpalet van de rijkshuisstijl drie kleuren (elk met tint1 / tint2) gekozen:
' - Rijksoverheid hemelblauw #007bc7 (#b2d7ee/#d9ebf7)
' - Rijksoverheid rood #d52b1e (#f2bfbb/#f9dfdd)
' - Rijksoverheid groen #39870c (#c3dbb6/#e1eddb)
' Het gebruik van deze kleuren in combinatie met veel wit wordt gestimuleerd.
'
' # Tinten voor achtergrondkaders, grafieken en tabellen
' Voor achtergrondkaders, grafieken en tabellen kunnen 7 neutrale grijstinten of tinten van een communicatiekleur in stappen van 20% worden toegepast. Voor tekstachtergrond wordt grijstint1 of communicatiekleur tint2 aanbevolen om aan de contrasteisen voor een goede leesbaarheid te voldoen.
'
' Rijksoverheid grijs 1 #f3f3f3
' Rijksoverheid grijs 2 #e6e6e6
' Rijksoverheid grijs 3 #cccccc
' Rijksoverheid grijs 4 #b4b4b4
' Rijksoverheid grijs 5 #999999
' Rijksoverheid grijs 6 #696969
' Rijksoverheid grijs 7 #535353

' --------^-^-^-^-^-^-^-^--------

skinparam defaultFontColor black
skinparam defaultFontName Lucida Sans
skinparam defaultFontSize 11
skinparam defaultFontStyle normal
skinparam defaultMonospacedFontName Lucida Sans Typewriter
' skinparam defaultTextAlignment left
' skinparam lineType ortho
' skinparam lineType polyline
skinparam shadowing false
skinparam wrapWidth 165

skinparam class {
    ArrowColor #39870c
    ArrowFontSize 10
'     ArrowTextAlignment center
    ArrowThickness 1.5
'     AttributeFontColor #000000
    AttributeIconSize 0
    BackgroundColor #ffffff
    BorderColor #007bc7
    BorderThickness 2
    FontColor #007bc7
    FontSize 12
    FontStyle bold
'     StereotypeFontStyle italic
'     StereotypeFontColor #000000
}

skinparam class<<extern>> {
    AttributeFontColor #b4b4b4
    BorderColor #b4b4b4
    FontColor #b4b4b4
    StereotypeFontColor #b4b4b4
}

skinparam class<<vrijwillig>> {
    BorderThickness 1
    FontStyle normal
}

skinparam note {
    BackgroundColor #fdf6bb
    BorderColor #f9e11e
    FontColor #007bc7
}

skinparam package {
    BackgroundColor #f3f3f3
    BorderColor #d52b1e
    FontColor #d52b1e
    FontSize 12
    FontStyle bold
    Style rectangle
}

skinparam package<< subpackage >> {
    BackgroundColor #e6e6e6
    BorderColor #e6e6e6
    FontStyle normal
}

hide circle

hide empty members

hide stereotype

' hide attributes

' hide methods

' title Conceptueel model voor Bouwwerken

' =================================================================================================

' hide AbstractObject

' hide Waardelijsten

' together {
'     class Ligplaats
'     class Standplaats
'     class Verblijfsobject
' }

"Adresseerbaar object" <|-- Ligplaats

"Adresseerbaar object" <|-- Standplaats

"Adresseerbaar object" <|-- Verblijfsobject

"Adresseerbaar object" "0..1" --> "0..*" Nummeraanduiding : heeft als\nnevenadres >
' Note on link: nevenadres

"Adresseerbaar object" "0..1" --> "1" Nummeraanduiding : heeft als\nhoofdadres >
' Note on link: hoofdadres

Nummeraanduiding "0..*" -up-> "0..1" Woonplaats : ligt\nin >
' Note on link: gerelateerde woonplaats

Nummeraanduiding "0..*" -left-> "1" "Openbare ruimte" : ligt\naan >
' Note on link: gerelateerde openbare ruimte

Verblijfsobject "0..*" -up-> "1..*" Pand : maakt\ndeel\nuit\nvan >
' Note on link: gerelateerd pand

"Openbare ruimte" "1..*" -up-> "1" Woonplaats : ligt\nin >
' Note on link: gerelateerde woonplaats

abstract class "Adresseerbaar object" << Objecttype >>

class Ligplaats << Objecttype >> {
    identificatie: Objectnummering {id}
    status: StatusPlaats
    geometrie: GM_Surface
    geconstateerd: Indicatie
    documentdatum: Date
    documentnummer: AN
}

class Nummeraanduiding << Objecttype >> {
    identificatie: Objectnummering {id}
    huisnummer: Integer
    huisletter: AN [0..1]
    huisnummertoevoeging: AN [0..1]
    postcode: AN [0..1]
    type adresseerbaar object: TypeAdresseerbaarObject
    status: StatusNaamgeving
    geconstateerd: Indicatie
    documentdatum: Date
    documentnummer: AN
}

class "Openbare ruimte" << Objecttype >> {
    identificatie: Objectnummering {id}
    naam: AN
    type: TypeOpenbareRuimte
    status: StatusNaamgeving
    geconstateerd: Indicatie
    documentdatum: Date
    documentnummer: AN
}

class Pand << Objecttype >> {
    identificatie: Objectnummering {id}
    geometrie: GM_Surface
    oorspronkelijk bouwjaar: Year
    status: StatusPand
    geconstateerd: Indicatie
    documentdatum: Date
    documentnummer: AN
}

class Standplaats << Objecttype >> {
    identificatie: Objectnummering {id}
    status: StatusPlaats
    geometrie: GM_Surface
    geconstateerd: Indicatie
    documentdatum: Date
    documentnummer: AN
}

class Verblijfsobject << Objecttype >> {
    identificatie: Objectnummering {id}
    geometrie: PuntOfVlak
    gebruiksdoel: Gebruiksdoel [1..*]
    oppervlakte: Integer
    status: StatusVerblijfsobject
    geconstateerd: Indicatie
    documentdatum: Date
    documentnummer: AN
}

class Woonplaats << Objecttype >> {
    identificatie: AN {id}
    naam: AN
    geometrie: VlakOfMultivlak
    status: StatusWoonplaats
    geconstateerd: Indicatie
    documentdatum: Date
    documentnummer: AN
}

@enduml
