@startuml

' --------v-v-v-v-v-v-v-v--------
' https://www.rijkshuisstijl.nl/organisatiespecifieke-richtlijnen/ministerie-van-binnenlandse-zaken-en-koninkrijksrelaties/deelidentiteit-kerndepartement-bzk
' https://www.rijkshuisstijl.nl/basiselementen/basiselementen-online/online-kleuren
'
' # Communicatiekleuren
' Het kerndepartement van BZK heeft uit het kleurenpalet van de rijkshuisstijl drie kleuren (elk met tint1 / tint2) gekozen:
' - Rijksoverheid hemelblauw #007bc7 (#b2d7ee/#d9ebf7)
' - Rijksoverheid rood #d52b1e (#f2bfbb/#f9dfdd)
' - Rijksoverheid groen #39870c (#c3dbb6/#e1eddb)
' Het gebruik van deze kleuren in combinatie met veel wit wordt gestimuleerd.
'
' # Tinten voor achtergrondkaders, grafieken en tabellen
' Voor achtergrondkaders, grafieken en tabellen kunnen 7 neutrale grijstinten of tinten van een communicatiekleur in stappen van 20% worden toegepast. Voor tekstachtergrond wordt grijstint1 of communicatiekleur tint2 aanbevolen om aan de contrasteisen voor een goede leesbaarheid te voldoen.
'
' Rijksoverheid grijs 1 #f3f3f3
' Rijksoverheid grijs 2 #e6e6e6
' Rijksoverheid grijs 3 #cccccc
' Rijksoverheid grijs 4 #b4b4b4
' Rijksoverheid grijs 5 #999999
' Rijksoverheid grijs 6 #696969
' Rijksoverheid grijs 7 #535353

' --------^-^-^-^-^-^-^-^--------

skinparam defaultFontColor black
skinparam defaultFontName Lucida Sans
skinparam defaultFontSize 11
skinparam defaultFontStyle normal
skinparam defaultMonospacedFontName Lucida Sans Typewriter
' skinparam defaultTextAlignment left
' skinparam lineType ortho
' skinparam lineType polyline
skinparam shadowing false
skinparam wrapWidth 165

skinparam class {
    ArrowColor #39870c
    ArrowFontSize 10
'     ArrowTextAlignment center
    ArrowThickness 1.5
    AttributeIconSize 0
    BackgroundColor #ffffff
    BorderColor #007bc7
'     StereotypeFontStyle italic
}

skinparam class<<extern>> {
    AttributeFontColor #b4b4b4
    BorderColor #b4b4b4
    FontColor #b4b4b4
    StereotypeFontColor #b4b4b4
}

skinparam note {
    BackgroundColor #fdf6bb
    BorderColor #f9e11e
    FontColor #01689b
}

skinparam package {
    BackgroundColor #f3f3f3
    BorderColor #d52b1e
    FontColor #d52b1e
    FontStyle bold
    Style rectangle
}

skinparam package<< subpackage >> {
    BackgroundColor #e6e6e6
    BorderColor #e6e6e6
    FontStyle normal
}

' hide AbstractObject

' hide Eigendom

' hide Gebruik

' hide FUNCTIE

hide circle

hide empty members

hide stereotype

package "FUNCTIE" {
    package "Gebruik" << subpackage >> {
        class Gebruikseenheid {
        }
        class Gebruiksdeel {
        }
    '     note top of Gebruiksdeel : Woning die alleen bereikbaar is via een winkel vormt een apart gebruiksdeel binnen dezelfde verblijfseenheid als de winkel. Deze gebruiksdelen gebruiken tezamen de gehele verblijfseenheid van de winkel met woning. Idem bij een bedrijfsverzamelgebouw. Als een gebruikseenheid de gehele verblijfseenheid gebruikt, is er geen gebruiksdeel, daarom kardinaliteit 0,2..*.
    }
    package "Eigendom" << subpackage >> {
        class Eigendomseenheid {
        }
        class Eigendomsdeel {
        }
        note top of Eigendomseenheid : Conceptueel als gebruikseenheid, maar omwille van de leesbaarheid hier niet verder uitgewerkt.
    }
}

package "FYSIEK" {
    package "Gebeurtenis" << subpackage >> {
        class Bouwwerk {
        }
    }
    class Gebouwblok {
    }
'     note left of Gebouwblok : Na een muurdoorbraak kan een verblijfseenheid in meerdere aaneengesloten gebouwen met verschillende typeGebouw zijn gelegen.
    class Gebouw {
    }
'     note top of Gebouw : Dus bovengrondse delen die uitsteken horen bij het gebouw waar ze aan vast zitten. Een ondergrondse kelder hoort bij het gebouw waar deze onder ligt en als een tunnel twee kantoortorens verbindt, dan vormen die samen met de tunnel één gebouw.
    class Toegang {
    }
    class Voorziening {
    }
    package "Indeling" << subpackage >> {
        class Bouwlaag {
        }
        class Gebouwdeel {
        }
        class Verblijfseenheid {
        }
        class Verkeerseenheid {
        }
'         note top of Verblijfseenheid : Als een verblijfsobject uit BAG, maar ongeacht functionele zelfstandigheid, altijd binnendoor bereikbaar, zonder gebruiksdoel en zonder eis van voorzieningen.
    }
}

' ABSTRACT
' AbstractObject <|-- Bouwwerk
' AbstractObject <|-- Gebouwblok
' AbstractObject <|-- Gebouw
' AbstractObject <|-- Gebruikseenheid
' AbstractObject <|-- Eigendomseenheid
' AbstractObject <|-- Gebruiksdeel
' AbstractObject <|-- Eigendomsdeel
' AbstractObject <|-- Voorziening
' AbstractObject <|-- Bouwlaag
' AbstractObject <|-- Gebouwdeel
' AbstractObject <|-- Toegang

' FYSIEK
Bouwwerk "1..*" o-left- "*" Voorziening
Gebouw "1..*" o-- "1..*" Bouwwerk
Gebouwblok "1" *-- "1..*" Gebouw
Gebouwblok "1" *-- "1..*" Gebouwdeel
Gebouwdeel <|-- Verblijfseenheid
Gebouwdeel <|-- Verkeerseenheid
Verkeerseenheid "*" -> "2..*" Verblijfseenheid : verbindt  >
Gebouwdeel "*" -> "1..*" Bouwlaag : ligt\nop  >
Gebouwdeel "*" --> "*" Voorziening : heeft >
Verblijfseenheid "1" --> "1..*" Toegang : heeft >
' Bouwlaag "*" --> "*" Voorziening : heeft >
' Gebouw "1" *-- "1..*" Bouwlaag

' GEBRUIK
Gebruikseenheid "*" --> "*" Voorziening : gebruikt >
Gebruikseenheid "*" --> "1..*" Gebouw : gebruikt >
Gebruikseenheid "1" o-- "*" Verblijfseenheid
Gebruikseenheid "1" --> "*" Gebruiksdeel : gebruikt >
Gebruikseenheid "1" --> "+ hoofdtoegang\nmet adres 1" Toegang : gebruikt >
Gebruikseenheid "*" --> "*" Bouwlaag : ligt\nop >
Gebruikseenheid "2..*" --> "*" Verkeerseenheid : gebruikt >
Gebruiksdeel "2..*" --* "1" Verblijfseenheid
' Gebruikseenheid"*" -left-> "*" Vastgoed : gebruikt >

' EIGENDOM
Gebruikseenheid "*" -left-> "*" Eigendomseenheid : gebruikt >
Gebruikseenheid "*" -left-> "*" Eigendomsdeel : gebruikt >
Eigendomseenheid "1" --> "*" Eigendomsdeel

' EXTERN
Bouwwerk "*" -down- "1..*" Bouwbesluit : is\ngebouwd\nvolgens >
Bouwwerk "1..*" -down-> "1" "IFC-model" : is\nbeschreven\nin >
Toegang "1" --> "0..1" Adres : heeft >

abstract class AbstractObject << Objecttype >> {
    + identificatie
    + documentdatum
    + documentnummer
    + geconstateerd
    + status
'     --
}
'     note top of AbstractObject : Generalisatie van alle objecttypen, maar omwille van de leesbaarheid hier niet verder weergegeven.
    note top of AbstractObject : Extra attributen voor alle objecttypen, maar omwille van de leesbaarheid hier niet verder uitgewerkt.

class Adres << extern >> {
}

class Bouwbesluit << extern >> {
}

class Gebouwblok << Objecttype >> {
'     ..//verplicht//..
'     ..//vrijwillig//..
'     --
    Grootst mogelijke geheel van aaneengesloten gebouwen.
}

class Bouwlaag << Objecttype >> << vrijwillig >> {
    + geometrie
    + verdiepingsaanduiding [1..1]
    --
    Grootste aaneengesloten gedeelte van een gebouwblok met dezelfde vloerhoogte.
}

abstract class Gebouwdeel << Objecttype >> {
'     ..//verplicht//..
    + geometrie
'     ..//vrijwillig//..
    --
    Binnen een gebouwblok gelegen aaneengesloten eenheid van ruimten die volledig binnendoor bereikbaar is.
}

class Bouwwerk << Objecttype >> {
'     ..//verplicht//..
    + bouwgeometrie [0..1]
    + bouwjaar [1..1]
'     + opleverdatum [1..1]
    + sloopgeometrie [0..*]
    + typeBouwwerk: TypeBouwwerk [1..*]
    + typeConstructie: TypeConstructie [1..*]
'     + vigerendBouwbesluit [1..1]
'     ..//vrijwillig//..
    --
    Grootst mogelijke geheel van een aaneengesloten en in één keer gerealiseerde bouwkundige constructie, ongeacht de duurzaamheid van de verbinding met de aarde en de bereikbaarheid binnendoor.
}

class Eigendomsdeel << Objecttype >> << extern >> {
    --
    Gedeelte van een verblijfseenheid dat door een andere eigendomseenheid wordt gebruikt dan andere eigendomsdelen van dezelfde verblijfseenheid.
}

class Eigendomseenheid << Objecttype >> << extern >> {
    --
    Kleinste ondeelbare samenstel van alle verblijfseenheden, gebouwen en voorzieningen die als geheel onderwerp kan zijn van goederenrechtelijke rechtshandelingen.
}

class Gebouw << Objecttype >> {
    + geometrie
    + typeGebouw: TypeGebouw [1..*]
    --
    Kleinst mogelijke homogene en duurzaam met de aarde verbonden samenstel van aaneengesloten bouwwerken die bestaat uit alle bouwwerken die steunen op dit samenstel of die erdoor worden ontsloten, ongeacht de bereikbaarheid binnendoor.
}

class Gebruiksdeel << Objecttype >> {
    + oppervlakte
    --
    Gedeelte van een verblijfseenheid dat door een andere gebruikseenheid wordt gebruikt dan andere gebruiksdelen van dezelfde verblijfseenheid.
}

class Gebruikseenheid << Objecttype >> {
    + feitelijkGebruik
    + gebruiksdoel: Gebruiksdoel [1..*]
    + vergundGebruik
    --
    Kleinste ondeelbare samenstel van alle verblijfseenheden, gebouwen en voorzieningen die als geheel wordt gebruikt en in functioneel opzicht zelfstandig is.
}

class "IFC-model" << extern >> {
'     https://hetnationaalbimplatform.nl/upload/documents/RVB_BIM_Norm_v1.1.pdf
}

class Toegang << Objecttype >> {
    + geometrie
    + toegankelijkheid
    --
    Deur of andere voorziening die toegang geeft tot een verblijfseenheid vanaf de openbare weg, een erf of een verkeerseenheid.
}

class Verblijfseenheid << Objecttype >> {
    + oppervlakte
    --
    Grootste aaneengesloten eenheid van verblijf die onderwerp kan zijn van goederenrechtelijke rechtshandelingen.
}

class Verkeerseenheid << Objecttype >> {
    --
    Grootste aaneengesloten eenheid van verkeer die bereikbaar is vanaf een openbare weg of een erf.
}

class Voorziening << Objecttype >> {
'     + gedeeldeVoorziening
'     + geometrie
    + typeVoorziening: TypeVoorziening
    --
    Geheel van een installatie of andere voorziening die relevant is voor een of meer gebruikseenheden.
}

@enduml
